<?xml version="1.0" encoding="utf-8" standalone="no"?>
<!DOCTYPE svg PUBLIC "-//W3C//DTD SVG 1.1//EN"
  "http://www.w3.org/Graphics/SVG/1.1/DTD/svg11.dtd">
<!-- Created with matplotlib (https://matplotlib.org/) -->
<svg height="345.6pt" version="1.1" viewBox="0 0 460.8 345.6" width="460.8pt" xmlns="http://www.w3.org/2000/svg" xmlns:xlink="http://www.w3.org/1999/xlink">
 <metadata>
  <rdf:RDF xmlns:cc="http://creativecommons.org/ns#" xmlns:dc="http://purl.org/dc/elements/1.1/" xmlns:rdf="http://www.w3.org/1999/02/22-rdf-syntax-ns#">
   <cc:Work>
    <dc:type rdf:resource="http://purl.org/dc/dcmitype/StillImage"/>
    <dc:date>2021-02-21T18:01:11.331906</dc:date>
    <dc:format>image/svg+xml</dc:format>
    <dc:creator>
     <cc:Agent>
      <dc:title>Matplotlib v3.3.4, https://matplotlib.org/</dc:title>
     </cc:Agent>
    </dc:creator>
   </cc:Work>
  </rdf:RDF>
 </metadata>
 <defs>
  <style type="text/css">*{stroke-linecap:butt;stroke-linejoin:round;}</style>
 </defs>
 <g id="figure_1">
  <g id="patch_1">
   <path d="M 0 345.6 
L 460.8 345.6 
L 460.8 0 
L 0 0 
z
" style="fill:none;"/>
  </g>
  <g id="axes_1">
   <g id="patch_2">
    <path d="M 342.6048 174.528 
C 342.6048 158.16012 338.829498 142.010665 331.573319 127.339082 
C 324.31714 112.667499 313.773747 99.865364 300.765387 89.931077 
C 287.757027 79.996789 272.630886 73.195491 256.566606 70.057593 
C 240.502326 66.919696 223.928654 67.528948 208.13812 71.837837 
C 192.347586 76.146725 177.76163 84.040248 165.517768 94.902813 
C 153.273905 105.765378 143.698918 119.307069 137.539529 134.471812 
C 131.380141 149.636555 128.800742 166.01961 130.002493 182.343314 
C 131.204244 198.667017 136.15507 214.495697 144.468871 228.594924 
L 236.16 174.528 
L 342.6048 174.528 
z
" style="fill:#1f77b4;"/>
   </g>
   <g id="patch_3">
    <path d="M 144.468871 228.594924 
C 146.331744 231.754137 148.356649 234.814963 150.535482 237.765152 
C 152.714315 240.71534 155.044166 243.550951 157.51571 246.260636 
L 236.16 174.528 
L 144.468871 228.594924 
z
" style="fill:#ff7f0e;"/>
   </g>
   <g id="patch_4">
    <path d="M 157.51571 246.260636 
C 170.609389 260.615931 187.387012 271.115836 206.021792 276.617098 
C 224.656572 282.11836 244.446705 282.413796 263.237394 277.471238 
L 236.16 174.528 
L 157.51571 246.260636 
z
" style="fill:#2ca02c;"/>
   </g>
   <g id="patch_5">
    <path d="M 263.237394 277.471238 
C 267.020875 276.47606 270.746616 275.273057 274.397655 273.867706 
C 278.048695 272.462355 281.619483 270.856791 285.093763 269.058325 
L 236.16 174.528 
L 263.237394 277.471238 
z
" style="fill:#d62728;"/>
   </g>
   <g id="patch_6">
    <path d="M 285.093763 269.058325 
C 302.4225 260.088078 316.955563 246.523297 327.097447 229.853185 
C 337.239331 213.183073 342.604797 194.040843 342.6048 174.528015 
L 236.16 174.528 
L 285.093763 269.058325 
z
" style="fill:#9467bd;"/>
   </g>
   <g id="matplotlib.axis_1"/>
   <g id="matplotlib.axis_2"/>
   <g id="text_1">
    <!-- 交際費 -->
    <g transform="translate(175.335932 64.364133)scale(0.1 -0.1)">
     <defs>
      <path d="M 45.171875 15.28125 
Q 36.234375 23.78125 29.109375 36.28125 
L 35.109375 39.890625 
Q 41.453125 28.21875 50.203125 20.125 
Q 58.9375 29.4375 63.484375 41.40625 
L 70.359375 38.484375 
Q 64.84375 25.484375 55.90625 15.578125 
Q 69.140625 6.34375 92.78125 1.421875 
L 87.59375 -5.8125 
Q 64.75 0.09375 50.6875 10.59375 
Q 36.578125 -1.46875 11.765625 -7.625 
L 6.890625 -0.6875 
Q 30.8125 3.609375 45.171875 15.28125 
z
M 53.515625 66.5 
L 91.890625 66.5 
L 91.890625 60.015625 
L 8.015625 60.015625 
L 8.015625 66.5 
L 45.796875 66.5 
L 45.796875 83.015625 
L 53.515625 83.015625 
z
M 9.578125 36.625 
Q 23.96875 44.921875 33.109375 58.109375 
L 39.40625 54.109375 
Q 30.125 41.015625 14.890625 30.8125 
z
M 83.890625 32.328125 
Q 71.921875 45.453125 58.984375 54.109375 
L 64.890625 58.59375 
Q 76.3125 51.46875 89.703125 38.375 
z
" id="IPAexGothic-20132"/>
      <path d="M 43.703125 48.96875 
Q 40.375 52.640625 36.921875 55.171875 
Q 35.109375 52.828125 32.234375 50 
L 28.515625 54.390625 
Q 39.75 65.765625 44.734375 82.46875 
L 50.640625 81.109375 
Q 49.5625 77.734375 48.828125 75.875 
L 59.515625 75.875 
L 62.59375 72.796875 
Q 58.25 58.109375 49.421875 46.390625 
L 77.734375 46.390625 
L 77.734375 40.375 
L 49.3125 40.375 
L 49.3125 46.296875 
Q 43.21875 38.671875 35.84375 33.5 
L 31.734375 38.375 
Q 38.28125 42.578125 43.703125 48.96875 
z
M 46.828125 53.078125 
Q 48.4375 55.328125 50 58.109375 
Q 45.40625 61.53125 42.53125 62.984375 
Q 41.0625 60.546875 39.59375 58.6875 
Q 43.65625 56.109375 46.828125 53.078125 
z
M 46.53125 70.453125 
Q 45.5625 68.359375 44.625 66.796875 
Q 48.484375 65.140625 52.34375 62.40625 
Q 53.953125 65.671875 55.609375 70.453125 
z
M 24.21875 48.875 
Q 33.296875 36.671875 33.296875 23.96875 
Q 33.296875 12.796875 24.125 12.796875 
Q 20.0625 12.796875 17.71875 13.484375 
L 16.703125 20.171875 
Q 19.875 19.28125 22.90625 19.28125 
Q 25.734375 19.28125 26.21875 21 
Q 26.609375 22.078125 26.609375 24.703125 
Q 26.609375 37.453125 17.71875 48.484375 
Q 23.390625 60.015625 26.03125 71.6875 
L 14.109375 71.6875 
L 14.109375 -7.03125 
L 7.515625 -7.03125 
L 7.515625 77.984375 
L 30.8125 77.984375 
L 34.234375 75.09375 
Q 29.25 59.765625 24.515625 49.46875 
z
M 79.640625 55.328125 
Q 86.03125 46.921875 95.609375 40.828125 
L 91.3125 35.5 
Q 77.59375 45.796875 70.515625 58.015625 
Q 65.328125 67.046875 61.921875 80.21875 
L 67.625 81.84375 
Q 70.5625 69.234375 76.21875 60.109375 
Q 82.125 66.21875 85.015625 70.703125 
L 74.125 70.703125 
L 74.125 76.3125 
L 90.4375 76.3125 
L 93.703125 72.609375 
Q 87.3125 62.84375 79.640625 55.328125 
z
M 66.609375 25.296875 
L 66.609375 0.78125 
Q 66.609375 -6.390625 58.9375 -6.390625 
Q 54.390625 -6.390625 49.21875 -5.8125 
L 47.40625 1.421875 
Q 53.859375 0.296875 57.328125 0.296875 
Q 59.90625 0.296875 59.90625 2.78125 
L 59.90625 25.296875 
L 37.015625 25.296875 
L 37.015625 31.296875 
L 91.21875 31.296875 
L 91.21875 25.296875 
z
M 31.203125 1.515625 
Q 39.3125 8.984375 44.234375 20.015625 
L 50.828125 17.578125 
Q 45.65625 5.953125 36.921875 -3.078125 
z
M 88.421875 -0.875 
Q 81.0625 10.0625 73 17.484375 
L 78.8125 20.796875 
Q 86.96875 13.53125 94.34375 3.8125 
z
" id="IPAexGothic-38555"/>
      <path d="M 19.484375 36.8125 
Q 15.140625 35.203125 9.96875 33.796875 
L 6.109375 39.109375 
Q 23.921875 42.875 31 50.203125 
L 11.078125 50.203125 
Q 13.421875 56.296875 14.890625 65.1875 
L 35.796875 65.1875 
L 35.796875 70.609375 
L 8.40625 70.609375 
L 8.40625 75.6875 
L 35.796875 75.6875 
L 35.796875 83.203125 
L 42.484375 83.203125 
L 42.484375 75.6875 
L 57.28125 75.6875 
L 57.28125 83.203125 
L 64.015625 83.203125 
L 64.015625 75.6875 
L 84.71875 75.6875 
L 84.71875 60.296875 
L 64.015625 60.296875 
L 64.015625 55.078125 
L 92.828125 55.078125 
Q 92.671875 47.3125 91.5 43.21875 
Q 90.484375 39.203125 85.109375 39.203125 
Q 83.796875 39.203125 80.90625 39.5 
L 80.90625 7.90625 
L 19.484375 7.90625 
z
M 32.375 43.5 
L 57.28125 43.5 
L 57.28125 50.203125 
L 38.671875 50.203125 
Q 36.46875 46.53125 32.375 43.5 
z
M 64.015625 43.5 
L 77.828125 43.5 
L 77.296875 45.796875 
Q 80.28125 45.0625 83.015625 45.0625 
Q 85.59375 45.0625 86.234375 50.203125 
L 64.015625 50.203125 
z
M 74.125 38.421875 
L 26.375 38.421875 
L 26.375 33.5 
L 74.125 33.5 
z
M 42.484375 65.1875 
L 57.28125 65.1875 
L 57.28125 70.609375 
L 42.484375 70.609375 
z
M 40.96875 55.078125 
L 57.28125 55.078125 
L 57.28125 60.296875 
L 42.1875 60.296875 
Q 41.890625 57.5625 40.96875 55.078125 
z
M 34.1875 55.078125 
Q 35.296875 57.8125 35.59375 60.296875 
L 20.703125 60.296875 
Q 20.265625 57.859375 19.484375 55.078125 
z
M 78.21875 70.609375 
L 64.015625 70.609375 
L 64.015625 65.1875 
L 78.21875 65.1875 
z
M 26.375 28.71875 
L 26.375 23.390625 
L 74.125 23.390625 
L 74.125 28.71875 
z
M 26.375 18.703125 
L 26.375 13.09375 
L 74.125 13.09375 
L 74.125 18.703125 
z
M 7.8125 -2.203125 
Q 24.90625 1.21875 35.984375 7.625 
L 41.890625 3.078125 
Q 27.4375 -4.828125 12.59375 -8.203125 
z
M 86.8125 -7.71875 
Q 71.09375 -1.03125 56.59375 2.875 
L 61.71875 7.515625 
Q 74.359375 4.6875 92.390625 -2 
z
" id="IPAexGothic-36027"/>
     </defs>
     <use xlink:href="#IPAexGothic-20132"/>
     <use x="100" xlink:href="#IPAexGothic-38555"/>
     <use x="200" xlink:href="#IPAexGothic-36027"/>
    </g>
   </g>
   <g id="text_2">
    <!-- 娯楽費 -->
    <g transform="translate(111.97303 246.884179)scale(0.1 -0.1)">
     <defs>
      <path d="M 37.5 62.796875 
Q 36.1875 33.40625 29.9375 18.890625 
Q 32.515625 16.9375 39.5 10.984375 
L 35.6875 4.6875 
Q 30.609375 9.625 27 12.796875 
Q 20.796875 0.734375 11.03125 -7.625 
L 7.03125 -2.296875 
Q 16.359375 5.859375 21.921875 17.09375 
Q 18.40625 20.015625 14.5 22.796875 
L 13.921875 23.1875 
Q 13.625 22.21875 12.984375 20.0625 
Q 12.359375 18.015625 12.015625 16.890625 
L 6.5 19.390625 
Q 11.578125 37.84375 15.140625 56.5 
L 5.71875 56.5 
L 5.71875 62.796875 
L 16.109375 62.796875 
Q 17.390625 70.609375 18.890625 82.625 
L 25.390625 81.203125 
Q 23.96875 70.65625 22.703125 62.796875 
z
M 30.71875 56.5 
L 21.625 56.5 
Q 18.609375 40.921875 15.53125 28.90625 
Q 20.75 25.4375 24.515625 22.90625 
Q 29.046875 33.546875 30.71875 56.5 
z
M 85.15625 24.90625 
L 95.5625 24.90625 
L 95.5625 18.890625 
L 38.8125 18.890625 
L 38.8125 24.90625 
L 78.421875 24.90625 
L 79.546875 36.46875 
L 48.734375 36.46875 
L 48.734375 30.8125 
L 42.234375 30.8125 
L 42.234375 71 
L 48.734375 71 
L 48.734375 42.28125 
L 86.71875 42.28125 
z
M 87.109375 78.328125 
L 87.109375 51.265625 
L 55.609375 51.265625 
L 55.609375 78.328125 
z
M 62.015625 72.515625 
L 62.015625 57.078125 
L 80.71875 57.078125 
L 80.71875 72.515625 
z
M 37.5 -2.390625 
Q 48.34375 4.890625 56.296875 16.015625 
L 62.109375 12.5 
Q 53.5625 0.53125 42.53125 -7.71875 
z
M 90.234375 -6.5 
Q 81 4.5 70.703125 12.3125 
L 75.828125 16.703125 
Q 87.015625 8.890625 95.90625 -1.21875 
z
" id="IPAexGothic-23087"/>
      <path d="M 46 36.1875 
L 32.625 36.1875 
L 32.625 72.796875 
L 43.703125 72.796875 
Q 45.265625 77.59375 46.1875 82.90625 
L 54.109375 81.5 
Q 52.546875 77.15625 50.296875 72.796875 
L 67.234375 72.796875 
L 67.234375 36.1875 
L 53.171875 36.1875 
L 53.171875 28.515625 
L 93.5625 28.515625 
L 93.5625 22.3125 
L 58.59375 22.3125 
Q 74.21875 9.578125 95.359375 2.734375 
L 90.53125 -4.109375 
Q 66.5 5.71875 53.171875 19.921875 
L 53.171875 -6.984375 
L 46 -6.984375 
L 46 19.4375 
Q 33.5 3.90625 10.296875 -6 
L 5.515625 0.09375 
Q 26.765625 7.171875 40.828125 22.3125 
L 6.5 22.3125 
L 6.5 28.515625 
L 46 28.515625 
z
M 39.015625 67 
L 39.015625 57.625 
L 60.9375 57.625 
L 60.9375 67 
z
M 39.015625 52 
L 39.015625 42 
L 60.9375 42 
L 60.9375 52 
z
M 24.8125 56 
Q 17.1875 64.890625 8.40625 71.1875 
L 13.234375 75.984375 
Q 21.921875 70.21875 29.9375 61.1875 
z
M 5.71875 38.09375 
Q 17.828125 44.484375 28.125 53.328125 
L 31.296875 47.609375 
Q 22.40625 39.453125 10.109375 32.328125 
z
M 69.53125 61.53125 
Q 79.046875 69.1875 85.5 77.203125 
L 91.703125 72.703125 
Q 84.671875 64.9375 74.703125 57.171875 
z
M 90.4375 34.515625 
Q 81.25 42.78125 69.140625 50.09375 
L 73.4375 54.984375 
Q 88.53125 45.953125 95.703125 40.09375 
z
" id="IPAexGothic-27005"/>
     </defs>
     <use xlink:href="#IPAexGothic-23087"/>
     <use x="100" xlink:href="#IPAexGothic-27005"/>
     <use x="200" xlink:href="#IPAexGothic-36027"/>
    </g>
   </g>
   <g id="text_3">
    <!-- 教材費 -->
    <g transform="translate(173.007971 289.62132)scale(0.1 -0.1)">
     <defs>
      <path d="M 86.03125 58.984375 
Q 84.375 35.453125 76.125 18.796875 
Q 83.6875 8.6875 95.90625 0.984375 
L 91.015625 -6 
Q 80.90625 1.5625 72.609375 12.59375 
Q 65.28125 1.375 52.203125 -7.171875 
L 47.3125 -1.125 
Q 61.140625 6.5 68.40625 18.609375 
Q 62.0625 28.421875 58.9375 42.78125 
Q 56.34375 36.921875 52.9375 31.0625 
L 48.25 36.375 
L 47.703125 35.890625 
Q 42.390625 30.421875 34.515625 24.5625 
L 34.515625 21.09375 
Q 44.96875 22.5625 53.125 24.171875 
L 53.421875 18.609375 
Q 42.328125 16.21875 34.515625 14.984375 
L 34.515625 0.09375 
Q 34.515625 -4.296875 32.234375 -5.953125 
Q 30.28125 -7.171875 25.734375 -7.171875 
Q 20.75 -7.171875 16.015625 -6.5 
L 15.1875 0.6875 
Q 20.3125 -0.484375 24.609375 -0.484375 
Q 28.03125 -0.484375 28.03125 2.6875 
L 28.03125 13.96875 
Q 21.09375 13.03125 7.90625 11.671875 
L 6.109375 17.96875 
Q 17.28125 18.890625 27.15625 20.0625 
L 28.03125 20.171875 
L 28.03125 26.375 
Q 34.71875 31.109375 37.9375 34.578125 
L 22.609375 34.578125 
Q 14.65625 27.59375 7.421875 23.09375 
L 3.328125 28.171875 
Q 16.265625 35.359375 27.9375 48.1875 
L 4.390625 48.1875 
L 4.390625 54.203125 
L 22.703125 54.203125 
L 22.703125 65.1875 
L 9.234375 65.1875 
L 9.234375 71 
L 23.34375 71 
L 23.34375 83.015625 
L 29.828125 83.015625 
L 29.828125 71 
L 40.828125 71 
L 40.828125 65.765625 
Q 43.796875 70.84375 47.015625 78.8125 
L 53.21875 75.875 
Q 47.75 64.3125 40.921875 54.78125 
L 51.21875 54.78125 
L 51.21875 48.78125 
L 36.328125 48.78125 
Q 33.6875 45.515625 28.8125 40.484375 
L 45.21875 40.484375 
L 48.34375 37.0625 
Q 54.5 47.75 57.625 60.59375 
Q 59.578125 68.796875 61.421875 82.625 
L 68.21875 81.296875 
Q 66.609375 70.171875 65.625 65.578125 
L 93.890625 65.578125 
L 93.890625 58.984375 
z
M 79.109375 58.984375 
L 64.109375 58.984375 
Q 63.921875 58.296875 63.375 56.109375 
Q 62.984375 54.59375 62.75 53.71875 
Q 65.625 36.625 71.921875 25.390625 
Q 77.15625 37.84375 79.109375 58.984375 
z
M 40.4375 65.1875 
L 29.203125 65.1875 
L 29.203125 54.203125 
L 33.015625 54.203125 
Q 37.25 59.625 40.4375 65.1875 
z
" id="IPAexGothic-25945"/>
      <path d="M 25.25 42.328125 
Q 19.390625 25.09375 9.71875 11.234375 
L 4.9375 18.015625 
Q 17.578125 33.984375 23.640625 55.328125 
L 7.515625 55.328125 
L 7.515625 61.8125 
L 25.25 61.8125 
L 25.25 82.03125 
L 32.328125 82.03125 
L 32.328125 61.8125 
L 45.015625 61.8125 
L 45.015625 55.328125 
L 32.328125 55.328125 
L 32.328125 45.125 
Q 41.609375 37.75 47.609375 31.109375 
L 43.109375 24.3125 
Q 38.421875 30.46875 32.71875 36.625 
L 32.328125 37.015625 
L 32.328125 -6.984375 
L 25.25 -6.984375 
z
M 73.875 45.21875 
Q 64.703125 24.078125 47.703125 8.890625 
L 42.140625 14.796875 
Q 62.84375 31.296875 71.34375 55.328125 
L 47.703125 55.328125 
L 47.703125 61.8125 
L 73.4375 61.8125 
L 73.4375 81.5 
L 80.609375 81.5 
L 80.609375 61.8125 
L 94.140625 61.8125 
L 94.140625 55.328125 
L 81.0625 55.328125 
L 81.0625 2.203125 
Q 81.0625 -2.4375 78.609375 -4.109375 
Q 76.515625 -5.609375 71.53125 -5.609375 
Q 64.84375 -5.609375 57.625 -4.78125 
L 56.453125 2.59375 
Q 64.453125 1.46875 70.40625 1.46875 
Q 73.875 1.46875 73.875 4.6875 
z
" id="IPAexGothic-26448"/>
     </defs>
     <use xlink:href="#IPAexGothic-25945"/>
     <use x="100" xlink:href="#IPAexGothic-26448"/>
     <use x="200" xlink:href="#IPAexGothic-36027"/>
    </g>
   </g>
   <g id="text_4">
    <!-- 日用品費 -->
    <g transform="translate(278.221421 286.596989)scale(0.1 -0.1)">
     <defs>
      <path d="M 81.734375 75 
L 81.734375 -4.5 
L 74.125 -4.5 
L 74.125 2 
L 25.734375 2 
L 25.734375 -4.5 
L 18.109375 -4.5 
L 18.109375 75 
z
M 25.734375 68.3125 
L 25.734375 42.671875 
L 74.125 42.671875 
L 74.125 68.3125 
z
M 25.734375 35.890625 
L 25.734375 8.6875 
L 74.125 8.6875 
L 74.125 35.890625 
z
" id="IPAexGothic-26085"/>
      <path d="M 86.765625 76.421875 
L 86.765625 3.171875 
Q 86.765625 -0.828125 85.25 -2.640625 
Q 83.25 -4.9375 77.203125 -4.9375 
Q 71 -4.9375 65.484375 -4.296875 
L 64.265625 3.171875 
Q 70.5625 2.046875 76.171875 2.046875 
Q 79.78125 2.046875 79.78125 5.8125 
L 79.78125 25.390625 
L 53.765625 25.390625 
L 53.765625 -1.609375 
L 46.875 -1.609375 
L 46.875 25.390625 
L 22.953125 25.390625 
Q 22.515625 3.65625 12.75 -7.625 
L 7.171875 -2.09375 
Q 15.96875 7.28125 15.96875 28.609375 
L 15.96875 76.421875 
z
M 23.046875 70.3125 
L 23.046875 54.203125 
L 46.875 54.203125 
L 46.875 70.3125 
z
M 23.046875 48.1875 
L 23.046875 31.390625 
L 46.875 31.390625 
L 46.875 48.1875 
z
M 79.78125 31.390625 
L 79.78125 48.1875 
L 53.765625 48.1875 
L 53.765625 31.390625 
z
M 79.78125 54.203125 
L 79.78125 70.3125 
L 53.765625 70.3125 
L 53.765625 54.203125 
z
" id="IPAexGothic-29992"/>
      <path d="M 74.703125 77.296875 
L 74.703125 44.875 
L 25.203125 44.875 
L 25.203125 77.296875 
z
M 32.28125 71.1875 
L 32.28125 50.984375 
L 67.71875 50.984375 
L 67.71875 71.1875 
z
M 44.390625 35.796875 
L 44.390625 -5.078125 
L 37.5 -5.078125 
L 37.5 0 
L 17 0 
L 17 -6 
L 10.109375 -6 
L 10.109375 35.796875 
z
M 17 29.6875 
L 17 6.203125 
L 37.5 6.203125 
L 37.5 29.6875 
z
M 89.796875 35.796875 
L 89.796875 -6 
L 82.90625 -6 
L 82.90625 0 
L 61.71875 0 
L 61.71875 -6 
L 54.828125 -6 
L 54.828125 35.796875 
z
M 61.71875 29.6875 
L 61.71875 6.203125 
L 82.90625 6.203125 
L 82.90625 29.6875 
z
" id="IPAexGothic-21697"/>
     </defs>
     <use xlink:href="#IPAexGothic-26085"/>
     <use x="100" xlink:href="#IPAexGothic-29992"/>
     <use x="200" xlink:href="#IPAexGothic-21697"/>
     <use x="300" xlink:href="#IPAexGothic-36027"/>
    </g>
   </g>
   <g id="text_5">
    <!-- 食費 -->
    <g transform="translate(336.191192 238.181016)scale(0.1 -0.1)">
     <defs>
      <path d="M 45.0625 22.796875 
L 30.28125 22.796875 
L 30.28125 2.296875 
Q 45.84375 5.21875 54.59375 7.328125 
L 55.28125 1.609375 
Q 36.328125 -3.8125 13.578125 -7.90625 
L 10.6875 -0.875 
Q 18.890625 0.34375 23.296875 1.125 
L 23.296875 51.125 
Q 15.375 46 8.59375 42.578125 
L 4.109375 48.578125 
Q 31.390625 60.6875 44.96875 82.90625 
L 53.375 82.90625 
Q 69.28125 62.359375 96.625 51.421875 
L 92.234375 44.875 
Q 81.6875 49.90625 76.125 53.515625 
L 76.125 23.1875 
Q 77.25 24.21875 78.859375 25.734375 
Q 80.28125 27.09375 80.71875 27.484375 
L 86.71875 22.90625 
Q 76.765625 14.65625 67.09375 8.890625 
Q 77.25 3.03125 93.609375 0 
L 89.109375 -6.78125 
Q 56.34375 0.6875 45.0625 22.796875 
z
M 52.296875 22.796875 
Q 56 17.09375 62.015625 12.40625 
Q 69.875 17.625 75.640625 22.796875 
z
M 69 50.09375 
L 30.28125 50.09375 
L 30.28125 42.484375 
L 69 42.484375 
z
M 69 36.859375 
L 30.28125 36.859375 
L 30.28125 28.71875 
L 69 28.71875 
z
M 72.40625 55.90625 
Q 58.84375 64.984375 49.46875 76.609375 
Q 42.046875 65.1875 30.078125 55.90625 
L 46.296875 55.90625 
L 46.296875 65.625 
L 53.171875 65.625 
L 53.171875 55.90625 
z
" id="IPAexGothic-39135"/>
     </defs>
     <use xlink:href="#IPAexGothic-39135"/>
     <use x="100" xlink:href="#IPAexGothic-36027"/>
    </g>
   </g>
  </g>
 </g>
</svg>
