<?xml version="1.0" encoding="utf-8" standalone="no"?>
<!DOCTYPE svg PUBLIC "-//W3C//DTD SVG 1.1//EN"
  "http://www.w3.org/Graphics/SVG/1.1/DTD/svg11.dtd">
<!-- Created with matplotlib (https://matplotlib.org/) -->
<svg height="345.6pt" version="1.1" viewBox="0 0 460.8 345.6" width="460.8pt" xmlns="http://www.w3.org/2000/svg" xmlns:xlink="http://www.w3.org/1999/xlink">
 <metadata>
  <rdf:RDF xmlns:cc="http://creativecommons.org/ns#" xmlns:dc="http://purl.org/dc/elements/1.1/" xmlns:rdf="http://www.w3.org/1999/02/22-rdf-syntax-ns#">
   <cc:Work>
    <dc:type rdf:resource="http://purl.org/dc/dcmitype/StillImage"/>
    <dc:date>2021-02-21T18:01:11.368550</dc:date>
    <dc:format>image/svg+xml</dc:format>
    <dc:creator>
     <cc:Agent>
      <dc:title>Matplotlib v3.3.4, https://matplotlib.org/</dc:title>
     </cc:Agent>
    </dc:creator>
   </cc:Work>
  </rdf:RDF>
 </metadata>
 <defs>
  <style type="text/css">*{stroke-linecap:butt;stroke-linejoin:round;}</style>
 </defs>
 <g id="figure_1">
  <g id="patch_1">
   <path d="M 0 345.6 
L 460.8 345.6 
L 460.8 0 
L 0 0 
z
" style="fill:none;"/>
  </g>
  <g id="axes_1">
   <g id="patch_2">
    <path d="M 342.6048 174.528 
C 342.6048 160.549797 339.851399 146.707514 334.502172 133.793339 
C 329.152945 120.879163 321.311922 109.144242 311.42784 99.26016 
C 301.543758 89.376078 289.808837 81.535055 276.894661 76.185828 
C 263.980486 70.836601 250.138203 68.0832 236.16 68.0832 
C 222.181797 68.0832 208.339514 70.836601 195.425339 76.185828 
C 182.511163 81.535055 170.776242 89.376078 160.89216 99.26016 
C 151.008078 109.144242 143.167055 120.879163 137.817828 133.793339 
C 132.468601 146.707514 129.7152 160.549797 129.7152 174.528 
C 129.7152 188.506203 132.468601 202.348486 137.817828 215.262661 
C 143.167055 228.176837 151.008078 239.911758 160.89216 249.79584 
C 170.776242 259.679922 182.511163 267.520945 195.425339 272.870172 
C 208.339514 278.219399 222.181797 280.9728 236.16 280.9728 
C 250.138203 280.9728 263.980486 278.219399 276.894661 272.870172 
C 289.808837 267.520945 301.543758 259.679922 311.42784 249.79584 
C 321.311922 239.911758 329.152945 228.176837 334.502172 215.262661 
C 339.851399 202.348486 342.6048 188.506203 342.6048 174.528 
M 236.16 174.528 
M 342.6048 174.528 
z
" style="fill:#1f77b4;"/>
   </g>
   <g id="matplotlib.axis_1"/>
   <g id="matplotlib.axis_2"/>
   <g id="text_1">
    <!-- お小遣い -->
    <g transform="translate(79.07072 177.323312)scale(0.1 -0.1)">
     <defs>
      <path d="M 33.015625 76.421875 
L 40.4375 76.421875 
L 40.4375 60.203125 
Q 50.25 61.8125 57.421875 63.8125 
L 58.109375 56.78125 
Q 47.40625 54.203125 40.4375 53.421875 
L 40.4375 38.375 
Q 49.75 41.5 59.421875 41.5 
Q 69.34375 41.5 76.03125 37.984375 
Q 85.84375 33.015625 85.84375 22.609375 
Q 85.84375 0.4375 51.21875 -1.515625 
L 47.703125 5.71875 
Q 58.734375 5.71875 66.546875 8.59375 
Q 77.734375 12.9375 77.734375 22.3125 
Q 77.734375 35.109375 58.84375 35.109375 
Q 49.859375 35.109375 40.4375 31.78125 
L 40.4375 7.171875 
Q 40.4375 2.203125 38.09375 0.09375 
Q 36.140625 -1.609375 32.125 -1.609375 
Q 24.171875 -1.609375 17.625 3.609375 
Q 11.921875 8.109375 11.921875 13.375 
Q 11.921875 26.171875 33.015625 35.59375 
L 33.015625 52.484375 
Q 24.5625 51.515625 14.984375 51.515625 
L 14.984375 58.59375 
L 16.109375 58.59375 
Q 25.734375 58.59375 33.015625 59.28125 
z
M 33.015625 28.71875 
Q 19.53125 22.5625 19.53125 13.578125 
Q 19.53125 11.1875 21.734375 8.984375 
Q 25.25 5.46875 29.5 5.46875 
Q 33.015625 5.46875 33.015625 9.078125 
z
M 84.71875 47.3125 
Q 75.6875 57.078125 63.8125 64.59375 
L 68.609375 69.921875 
Q 79.890625 63.234375 90.140625 53.328125 
z
" id="IPAexGothic-12362"/>
      <path d="M 46 78.21875 
L 53.90625 78.21875 
L 53.90625 5.609375 
Q 53.90625 0.640625 51.90625 -1.515625 
Q 49.703125 -3.71875 43.109375 -3.71875 
Q 37.3125 -3.71875 30.171875 -3.078125 
L 28.609375 4.890625 
Q 35.0625 3.609375 42.09375 3.609375 
Q 46 3.609375 46 7.421875 
z
M 85.203125 16.109375 
Q 77 39.3125 65.1875 58.109375 
L 71.875 61.1875 
Q 84.375 41.40625 92.875 20.015625 
z
M 6.78125 19.671875 
Q 19.34375 34.859375 24.265625 58.890625 
L 31.890625 56.890625 
Q 26.171875 30.28125 12.890625 14.015625 
z
" id="IPAexGothic-23567"/>
      <path d="M 26.609375 11.46875 
Q 30.28125 6.453125 36.53125 4.046875 
Q 43.5 1.46875 61.53125 1.46875 
Q 76.5625 1.46875 96 2.78125 
Q 94.140625 -0.78125 93.40625 -4.6875 
Q 77.046875 -5.328125 68.5 -5.328125 
Q 43.609375 -5.328125 34.625 -1.90625 
Q 27.78125 0.640625 23.734375 6.203125 
Q 18.0625 -0.640625 10.109375 -6.984375 
L 5.71875 0.296875 
Q 13.8125 5.375 19.734375 10.5 
L 19.734375 35.984375 
L 5.90625 35.984375 
L 5.90625 42.671875 
L 26.609375 42.671875 
z
M 57.03125 76.609375 
L 57.03125 83.015625 
L 63.421875 83.015625 
L 63.421875 76.609375 
L 84.8125 76.609375 
L 84.8125 60.5 
L 63.421875 60.5 
L 63.421875 55.421875 
L 94 55.421875 
L 94 50 
L 28.515625 50 
L 28.515625 55.421875 
L 57.03125 55.421875 
L 57.03125 60.5 
L 36.03125 60.5 
L 36.03125 76.609375 
z
M 42.4375 71.625 
L 42.4375 65.375 
L 57.03125 65.375 
L 57.03125 71.625 
z
M 78.515625 65.375 
L 78.515625 71.625 
L 63.421875 71.625 
L 63.421875 65.375 
z
M 83.296875 44.921875 
L 83.296875 29 
L 44.09375 29 
L 44.09375 24.03125 
L 85.796875 24.03125 
L 85.796875 7.625 
L 37.5 7.625 
L 37.5 44.921875 
z
M 44.09375 39.84375 
L 44.09375 34.078125 
L 77 34.078125 
L 77 39.84375 
z
M 44.09375 18.703125 
L 44.09375 12.796875 
L 79.5 12.796875 
L 79.5 18.703125 
z
M 23.6875 58.984375 
Q 16.15625 68.109375 8.796875 74.03125 
L 13.71875 79 
Q 22.75 71.875 29 64.5 
z
" id="IPAexGothic-36963"/>
      <path d="M 52.640625 22.609375 
Q 45.40625 1.90625 35.59375 1.90625 
Q 30.71875 1.90625 25.734375 7.515625 
Q 18.890625 15.09375 16.3125 30.71875 
Q 13.921875 45.125 13.921875 67.390625 
L 22.21875 67.390625 
Q 22.078125 38.1875 26.03125 24.21875 
Q 29.890625 10.59375 35.59375 10.59375 
Q 40.921875 10.59375 45.703125 27.984375 
z
M 84.03125 20.21875 
Q 77 43.703125 63.03125 59.515625 
L 70.125 62.984375 
Q 83.984375 46.875 91.890625 24.421875 
z
" id="IPAexGothic-12356"/>
     </defs>
     <use xlink:href="#IPAexGothic-12362"/>
     <use x="100" xlink:href="#IPAexGothic-23567"/>
     <use x="200" xlink:href="#IPAexGothic-36963"/>
     <use x="300" xlink:href="#IPAexGothic-12356"/>
    </g>
   </g>
  </g>
 </g>
</svg>
