<?xml version="1.0" encoding="utf-8" standalone="no"?>
<!DOCTYPE svg PUBLIC "-//W3C//DTD SVG 1.1//EN"
  "http://www.w3.org/Graphics/SVG/1.1/DTD/svg11.dtd">
<!-- Created with matplotlib (https://matplotlib.org/) -->
<svg height="345.6pt" version="1.1" viewBox="0 0 460.8 345.6" width="460.8pt" xmlns="http://www.w3.org/2000/svg" xmlns:xlink="http://www.w3.org/1999/xlink">
 <metadata>
  <rdf:RDF xmlns:cc="http://creativecommons.org/ns#" xmlns:dc="http://purl.org/dc/elements/1.1/" xmlns:rdf="http://www.w3.org/1999/02/22-rdf-syntax-ns#">
   <cc:Work>
    <dc:type rdf:resource="http://purl.org/dc/dcmitype/StillImage"/>
    <dc:date>2021-02-21T18:01:07.494553</dc:date>
    <dc:format>image/svg+xml</dc:format>
    <dc:creator>
     <cc:Agent>
      <dc:title>Matplotlib v3.3.4, https://matplotlib.org/</dc:title>
     </cc:Agent>
    </dc:creator>
   </cc:Work>
  </rdf:RDF>
 </metadata>
 <defs>
  <style type="text/css">*{stroke-linecap:butt;stroke-linejoin:round;}</style>
 </defs>
 <g id="figure_1">
  <g id="patch_1">
   <path d="M 0 345.6 
L 460.8 345.6 
L 460.8 0 
L 0 0 
z
" style="fill:none;"/>
  </g>
  <g id="axes_1">
   <g id="patch_2">
    <path d="M 342.6048 174.528 
C 342.6048 160.549797 339.851399 146.707514 334.502172 133.793339 
C 329.152945 120.879163 321.311922 109.144242 311.42784 99.26016 
C 301.543758 89.376078 289.808837 81.535055 276.894661 76.185828 
C 263.980486 70.836601 250.138203 68.0832 236.16 68.0832 
C 222.181797 68.0832 208.339514 70.836601 195.425339 76.185828 
C 182.511163 81.535055 170.776242 89.376078 160.89216 99.26016 
C 151.008078 109.144242 143.167055 120.879163 137.817828 133.793339 
C 132.468601 146.707514 129.7152 160.549797 129.7152 174.528 
C 129.7152 188.506203 132.468601 202.348486 137.817828 215.262661 
C 143.167055 228.176837 151.008078 239.911758 160.89216 249.79584 
C 170.776242 259.679922 182.511163 267.520945 195.425339 272.870172 
C 208.339514 278.219399 222.181797 280.9728 236.16 280.9728 
C 250.138203 280.9728 263.980486 278.219399 276.894661 272.870172 
C 289.808837 267.520945 301.543758 259.679922 311.42784 249.79584 
C 321.311922 239.911758 329.152945 228.176837 334.502172 215.262661 
C 339.851399 202.348486 342.6048 188.506203 342.6048 174.528 
M 236.16 174.528 
M 342.6048 174.528 
z
" style="fill:#1f77b4;"/>
   </g>
   <g id="matplotlib.axis_1"/>
   <g id="matplotlib.axis_2"/>
   <g id="text_1">
    <!-- 給料 -->
    <g transform="translate(99.07072 177.323312)scale(0.1 -0.1)">
     <defs>
      <path d="M 19.875 48.1875 
Q 13.875 56.453125 5.90625 64.109375 
L 10.203125 68.890625 
L 14.0625 64.890625 
Q 20.125 73.046875 24.5625 83.296875 
L 30.953125 79.78125 
Q 24.65625 68.84375 17.875 60.5 
Q 21.1875 56.734375 23.578125 53.21875 
Q 30.328125 62.84375 34.96875 70.90625 
L 40.875 67 
Q 29.4375 49.703125 20.703125 40.1875 
Q 26.65625 40.328125 35.5 41.109375 
Q 33.0625 46.484375 31.5 49.21875 
L 36.96875 51.515625 
Q 41.9375 42.28125 45.171875 32.90625 
L 39.265625 29.984375 
Q 38.96875 31.203125 37.25 36.28125 
Q 31.59375 35.359375 27.984375 34.90625 
L 27.984375 -6.984375 
L 21.484375 -6.984375 
L 21.484375 34.078125 
L 20.265625 33.984375 
Q 12.75 33.25 6.78125 32.90625 
L 4.5 39.59375 
Q 11.8125 39.75 13.484375 39.890625 
L 13.96875 40.484375 
Q 18.3125 46.046875 19.875 48.1875 
z
M 55.90625 49.703125 
L 82.71875 49.703125 
L 82.71875 43.5 
L 55.71875 43.5 
L 55.71875 49.515625 
Q 52.046875 44.4375 46.78125 39.3125 
L 42.484375 45.015625 
Q 56.59375 56.984375 63.484375 81.5 
L 71.09375 81.5 
Q 81.0625 58.734375 96.96875 46.828125 
L 92.578125 40.71875 
Q 77 53.5625 67.578125 73.921875 
Q 63.53125 60.59375 55.90625 49.703125 
z
M 88.484375 32.515625 
L 88.484375 -6.5 
L 81.984375 -6.5 
L 81.984375 -1.421875 
L 56.390625 -1.421875 
L 56.390625 -7.03125 
L 49.90625 -7.03125 
L 49.90625 32.515625 
z
M 56.390625 26.515625 
L 56.390625 4.59375 
L 81.984375 4.59375 
L 81.984375 26.515625 
z
M 5.609375 3.21875 
Q 9.28125 13.140625 10.296875 27.484375 
L 16.703125 26.703125 
Q 15.484375 10.59375 12.109375 -0.203125 
z
M 36.671875 4.890625 
Q 34.71875 17.921875 31.5 27.6875 
L 37.109375 29.390625 
Q 41.015625 19.921875 43.5 7.625 
z
" id="IPAexGothic-32102"/>
      <path d="M 24.359375 30.421875 
Q 18.65625 15.578125 9.375 4.9375 
L 4.984375 11.421875 
Q 16.84375 23.875 22.65625 40.625 
L 6.15625 40.625 
L 6.15625 46.921875 
L 24.359375 46.921875 
L 24.359375 83.015625 
L 31.25 83.015625 
L 31.25 46.921875 
L 47.953125 46.921875 
L 47.953125 40.625 
L 31.25 40.625 
L 31.25 36.234375 
Q 38.625 31.984375 46.625 25.828125 
L 42.53125 19.34375 
Q 36.96875 24.609375 31.25 29.25 
L 31.25 -6.984375 
L 24.359375 -6.984375 
z
M 82.46875 27.78125 
L 94.96875 30.328125 
L 95.5625 23.484375 
L 82.765625 20.90625 
L 82.765625 -6.5 
L 75.6875 -6.5 
L 75.6875 19.484375 
L 45.703125 13.484375 
L 44.671875 20.40625 
L 75.390625 26.421875 
L 75.390625 80.90625 
L 82.46875 80.90625 
z
M 13.578125 52.09375 
Q 11.53125 62.890625 7.375 72.65625 
L 13.765625 75.390625 
Q 17.53125 66.0625 20.265625 54.296875 
z
M 34.578125 54.390625 
Q 39.15625 63.96875 42.1875 76.265625 
L 49.46875 74.265625 
Q 45.609375 61.96875 40.875 52.296875 
z
M 65.1875 31.5 
Q 57.375 41.015625 50 46.78125 
L 54.296875 51.46875 
Q 62.84375 44.875 69.96875 36.765625 
z
M 67 53.609375 
Q 59.078125 62.984375 51.46875 68.796875 
L 56.203125 73.828125 
Q 65.28125 66.453125 71.96875 58.796875 
z
" id="IPAexGothic-26009"/>
     </defs>
     <use xlink:href="#IPAexGothic-32102"/>
     <use x="100" xlink:href="#IPAexGothic-26009"/>
    </g>
   </g>
  </g>
 </g>
</svg>
